<svg width="219" height="62" viewBox="0 0 219 62" fill="none" xmlns="http://www.w3.org/2000/svg">
<rect y="1" width="61" height="61" rx="14" fill="#AF4600"/>
<path d="M40.5 21.6786H32.5C31.5 18.1786 27.5 16.6786 27 16.6786H17V34.1786H25.5V23.6786H51.5V29.1786H34V34.1786H47V40.1786H34V45.6786H51.5V51.1786H25.5V40.1786H9V11.1786C10.8333 10.8452 25.5 11.0586 27 11.1786C37 11.9787 40.1667 18.5119 40.5 21.6786Z" fill="white" stroke="white"/>
<path d="M109.5 1L97.5 24.5H104L113 7L119 19.5H110.5L108 24.5H128.5L116.5 1H109.5Z" fill="#AF4600" stroke="#AF4600"/>
<path d="M198.5 1L186.5 24.5H193L202 7L208 19.5H199.5L197 24.5H217.5L205.5 1H198.5Z" fill="#AF4600" stroke="#AF4600"/>
<path d="M129 1V5H138.5V25H145.5V5H155.5V1H129Z" fill="#AF4600" stroke="#AF4600"/>
<path d="M159 1V5H169V25H176V5H186V1H159Z" fill="#AF4600" stroke="#AF4600"/>
<path d="M74.5 9H68V24.5H86.5C91 24 96.5 20.6 96.5 13C96.5 5.4 91.5 2 86.5 1H68V5H85C88.5 6 90 8.5 90 13C90 17.5 87.5 20 85 20.5H74.5V9Z" fill="#AF4600" stroke="#AF4600"/>
<path d="M71.9033 41H69.7773L69.791 39.6396H71.9033C72.5186 39.6396 73.0335 39.5052 73.4482 39.2363C73.8675 38.9674 74.182 38.5824 74.3916 38.0811C74.6058 37.5798 74.7129 36.9827 74.7129 36.29V35.75C74.7129 35.2122 74.6514 34.736 74.5283 34.3213C74.4098 33.9066 74.2321 33.5579 73.9951 33.2754C73.7627 32.9928 73.4756 32.7786 73.1338 32.6328C72.7965 32.487 72.4069 32.4141 71.9648 32.4141H69.7363V31.0469H71.9648C72.6257 31.0469 73.2295 31.1585 73.7764 31.3818C74.3232 31.6006 74.7949 31.9173 75.1914 32.332C75.5924 32.7467 75.9001 33.2435 76.1143 33.8223C76.3285 34.401 76.4355 35.0482 76.4355 35.7637V36.29C76.4355 37.0055 76.3285 37.6527 76.1143 38.2314C75.9001 38.8102 75.5924 39.307 75.1914 39.7217C74.7904 40.1318 74.3118 40.4486 73.7559 40.6719C73.2044 40.8906 72.5869 41 71.9033 41ZM70.7275 31.0469V41H69.0117V31.0469H70.7275ZM82.7238 32.373L79.7502 41H77.9523L81.6984 31.0469H82.8468L82.7238 32.373ZM85.2121 41L82.2316 32.373L82.1017 31.0469H83.257L87.0168 41H85.2121ZM85.0685 37.3086V38.6689H79.6545V37.3086H85.0685ZM92.2044 31.0469V41H90.5023V31.0469H92.2044ZM95.3284 31.0469V32.4141H87.4056V31.0469H95.3284ZM101.685 31.0469V41H99.9829V31.0469H101.685ZM104.809 31.0469V32.4141H96.8862V31.0469H104.809ZM110.181 32.373L107.208 41H105.41L109.156 31.0469H110.304L110.181 32.373ZM112.67 41L109.689 32.373L109.559 31.0469H110.714L114.474 41H112.67ZM112.526 37.3086V38.6689H107.112V37.3086H112.526ZM127.269 39.6396V41H121.985V39.6396H127.269ZM122.471 31.0469V41H120.755V31.0469H122.471ZM126.579 35.2031V36.543H121.985V35.2031H126.579ZM127.235 31.0469V32.4141H121.985V31.0469H127.235ZM137.406 31.0469V41H135.691L131.227 33.8701V41H129.511V31.0469H131.227L135.704 38.1904V31.0469H137.406ZM144.18 31.0469V41H142.478V31.0469H144.18ZM147.304 31.0469V32.4141H139.381V31.0469H147.304ZM155.971 39.6396V41H150.687V39.6396H155.971ZM151.172 31.0469V41H149.456V31.0469H151.172ZM155.281 35.2031V36.543H150.687V35.2031H155.281ZM155.937 31.0469V32.4141H150.687V31.0469H155.937ZM158.213 31.0469H161.733C162.49 31.0469 163.134 31.1608 163.668 31.3887C164.201 31.6165 164.609 31.9538 164.891 32.4004C165.178 32.8424 165.322 33.3893 165.322 34.041C165.322 34.5378 165.231 34.9753 165.048 35.3535C164.866 35.7318 164.609 36.0508 164.276 36.3105C163.943 36.5658 163.547 36.764 163.087 36.9053L162.567 37.1582H159.402L159.388 35.7979H161.76C162.171 35.7979 162.512 35.7249 162.786 35.5791C163.059 35.4333 163.264 35.235 163.401 34.9844C163.542 34.7292 163.613 34.4421 163.613 34.123C163.613 33.7767 163.545 33.4759 163.408 33.2207C163.276 32.9609 163.071 32.7627 162.793 32.626C162.515 32.4847 162.161 32.4141 161.733 32.4141H159.928V41H158.213V31.0469ZM163.893 41L161.555 36.5293L163.353 36.5225L165.725 40.9111V41H163.893ZM171.651 37.2881H169.06V35.9277H171.651C172.102 35.9277 172.467 35.8548 172.745 35.709C173.023 35.5632 173.226 35.3626 173.353 35.1074C173.485 34.8477 173.552 34.5514 173.552 34.2188C173.552 33.9043 173.485 33.6104 173.353 33.3369C173.226 33.0589 173.023 32.8356 172.745 32.667C172.467 32.4984 172.102 32.4141 171.651 32.4141H169.587V41H167.871V31.0469H171.651C172.421 31.0469 173.075 31.1836 173.613 31.457C174.155 31.7259 174.568 32.0996 174.85 32.5781C175.133 33.0521 175.274 33.5944 175.274 34.2051C175.274 34.8477 175.133 35.3991 174.85 35.8594C174.568 36.3197 174.155 36.6729 173.613 36.9189C173.075 37.165 172.421 37.2881 171.651 37.2881ZM177.652 31.0469H181.173C181.929 31.0469 182.574 31.1608 183.107 31.3887C183.641 31.6165 184.048 31.9538 184.331 32.4004C184.618 32.8424 184.762 33.3893 184.762 34.041C184.762 34.5378 184.67 34.9753 184.488 35.3535C184.306 35.7318 184.048 36.0508 183.716 36.3105C183.383 36.5658 182.987 36.764 182.526 36.9053L182.007 37.1582H178.842L178.828 35.7979H181.2C181.61 35.7979 181.952 35.7249 182.226 35.5791C182.499 35.4333 182.704 35.235 182.841 34.9844C182.982 34.7292 183.053 34.4421 183.053 34.123C183.053 33.7767 182.984 33.4759 182.848 33.2207C182.715 32.9609 182.51 32.7627 182.232 32.626C181.954 32.4847 181.601 32.4141 181.173 32.4141H179.368V41H177.652V31.0469ZM183.333 41L180.995 36.5293L182.793 36.5225L185.165 40.9111V41H183.333ZM189.143 31.0469V41H187.427V31.0469H189.143ZM197.352 38.4365C197.352 38.2314 197.32 38.0492 197.256 37.8896C197.197 37.7301 197.09 37.5843 196.935 37.4521C196.78 37.32 196.561 37.1924 196.279 37.0693C196.001 36.9417 195.645 36.8118 195.212 36.6797C194.738 36.5339 194.301 36.3721 193.9 36.1943C193.503 36.012 193.157 35.8024 192.861 35.5654C192.564 35.3239 192.334 35.0482 192.17 34.7383C192.006 34.4238 191.924 34.0615 191.924 33.6514C191.924 33.2458 192.008 32.8766 192.177 32.5439C192.35 32.2113 192.594 31.9242 192.908 31.6826C193.227 31.4365 193.603 31.2474 194.036 31.1152C194.469 30.9785 194.948 30.9102 195.472 30.9102C196.21 30.9102 196.846 31.0469 197.379 31.3203C197.917 31.5938 198.329 31.9606 198.616 32.4209C198.908 32.8812 199.054 33.3893 199.054 33.9453H197.352C197.352 33.6172 197.281 33.3278 197.14 33.0771C197.003 32.8219 196.794 32.6214 196.511 32.4756C196.233 32.3298 195.88 32.2568 195.451 32.2568C195.046 32.2568 194.709 32.3184 194.44 32.4414C194.171 32.5645 193.97 32.7308 193.838 32.9404C193.706 33.1501 193.64 33.387 193.64 33.6514C193.64 33.8382 193.683 34.0091 193.77 34.1641C193.856 34.3145 193.989 34.4557 194.166 34.5879C194.344 34.7155 194.567 34.8363 194.836 34.9502C195.105 35.0641 195.422 35.1735 195.786 35.2783C196.338 35.4424 196.819 35.6247 197.229 35.8252C197.639 36.0212 197.981 36.2445 198.254 36.4951C198.528 36.7458 198.733 37.0306 198.869 37.3496C199.006 37.6641 199.074 38.0218 199.074 38.4229C199.074 38.8421 198.99 39.2204 198.822 39.5576C198.653 39.8903 198.411 40.1751 198.097 40.4121C197.787 40.6445 197.413 40.8245 196.976 40.9521C196.543 41.0752 196.06 41.1367 195.527 41.1367C195.048 41.1367 194.576 41.0729 194.112 40.9453C193.651 40.8177 193.232 40.624 192.854 40.3643C192.475 40.0999 192.175 39.7718 191.951 39.3799C191.728 38.9834 191.616 38.5208 191.616 37.9922H193.332C193.332 38.3158 193.387 38.5915 193.496 38.8193C193.61 39.0472 193.767 39.234 193.968 39.3799C194.169 39.5212 194.401 39.626 194.665 39.6943C194.934 39.7627 195.221 39.7969 195.527 39.7969C195.928 39.7969 196.263 39.7399 196.531 39.626C196.805 39.512 197.01 39.3525 197.147 39.1475C197.283 38.9424 197.352 38.7054 197.352 38.4365ZM207.947 39.6396V41H202.663V39.6396H207.947ZM203.148 31.0469V41H201.432V31.0469H203.148ZM207.256 35.2031V36.543H202.663V35.2031H207.256ZM207.913 31.0469V32.4141H202.663V31.0469H207.913ZM215.424 38.4365C215.424 38.2314 215.392 38.0492 215.329 37.8896C215.269 37.7301 215.162 37.5843 215.007 37.4521C214.852 37.32 214.634 37.1924 214.351 37.0693C214.073 36.9417 213.718 36.8118 213.285 36.6797C212.811 36.5339 212.373 36.3721 211.972 36.1943C211.576 36.012 211.229 35.8024 210.933 35.5654C210.637 35.3239 210.407 35.0482 210.243 34.7383C210.079 34.4238 209.997 34.0615 209.997 33.6514C209.997 33.2458 210.081 32.8766 210.25 32.5439C210.423 32.2113 210.667 31.9242 210.981 31.6826C211.3 31.4365 211.676 31.2474 212.109 31.1152C212.542 30.9785 213.02 30.9102 213.544 30.9102C214.283 30.9102 214.919 31.0469 215.452 31.3203C215.989 31.5938 216.402 31.9606 216.689 32.4209C216.981 32.8812 217.127 33.3893 217.127 33.9453H215.424C215.424 33.6172 215.354 33.3278 215.212 33.0771C215.076 32.8219 214.866 32.6214 214.584 32.4756C214.306 32.3298 213.952 32.2568 213.524 32.2568C213.118 32.2568 212.781 32.3184 212.512 32.4414C212.243 32.5645 212.043 32.7308 211.911 32.9404C211.779 33.1501 211.712 33.387 211.712 33.6514C211.712 33.8382 211.756 34.0091 211.842 34.1641C211.929 34.3145 212.061 34.4557 212.239 34.5879C212.417 34.7155 212.64 34.8363 212.909 34.9502C213.178 35.0641 213.494 35.1735 213.859 35.2783C214.41 35.4424 214.891 35.6247 215.301 35.8252C215.711 36.0212 216.053 36.2445 216.327 36.4951C216.6 36.7458 216.805 37.0306 216.942 37.3496C217.079 37.6641 217.147 38.0218 217.147 38.4229C217.147 38.8421 217.063 39.2204 216.894 39.5576C216.725 39.8903 216.484 40.1751 216.169 40.4121C215.86 40.6445 215.486 40.8245 215.048 40.9521C214.615 41.0752 214.132 41.1367 213.599 41.1367C213.121 41.1367 212.649 41.0729 212.184 40.9453C211.724 40.8177 211.305 40.624 210.926 40.3643C210.548 40.0999 210.247 39.7718 210.024 39.3799C209.801 38.9834 209.689 38.5208 209.689 37.9922H211.405C211.405 38.3158 211.46 38.5915 211.569 38.8193C211.683 39.0472 211.84 39.234 212.041 39.3799C212.241 39.5212 212.474 39.626 212.738 39.6943C213.007 39.7627 213.294 39.7969 213.599 39.7969C214 39.7969 214.335 39.7399 214.604 39.626C214.878 39.512 215.083 39.3525 215.219 39.1475C215.356 38.9424 215.424 38.7054 215.424 38.4365ZM101.128 49.0469V59H99.4122V49.0469H101.128ZM105.571 53.1826V59H103.923V51.6035H105.475L105.571 53.1826ZM105.277 55.0283L104.743 55.0215C104.748 54.4974 104.821 54.0166 104.962 53.5791C105.108 53.1416 105.309 52.7656 105.564 52.4512C105.824 52.1367 106.133 51.8952 106.493 51.7266C106.853 51.5534 107.255 51.4668 107.697 51.4668C108.052 51.4668 108.373 51.5169 108.66 51.6172C108.952 51.7129 109.2 51.8701 109.406 52.0889C109.615 52.3076 109.775 52.5924 109.884 52.9434C109.993 53.2897 110.048 53.7158 110.048 54.2217V59H108.394V54.2148C108.394 53.8594 108.341 53.5791 108.237 53.374C108.136 53.1644 107.988 53.0163 107.792 52.9297C107.601 52.8385 107.362 52.793 107.074 52.793C106.792 52.793 106.539 52.8522 106.316 52.9707C106.092 53.0892 105.903 53.251 105.748 53.4561C105.598 53.6611 105.482 53.8981 105.4 54.167C105.318 54.4359 105.277 54.723 105.277 55.0283ZM117.081 57.4688V48.5H118.736V59H117.239L117.081 57.4688ZM112.269 55.3838V55.2402C112.269 54.6797 112.335 54.1693 112.467 53.709C112.599 53.2441 112.791 52.8454 113.041 52.5127C113.292 52.1755 113.597 51.918 113.957 51.7402C114.317 51.5579 114.723 51.4668 115.174 51.4668C115.621 51.4668 116.013 51.5534 116.35 51.7266C116.687 51.8997 116.974 52.1481 117.211 52.4717C117.448 52.7907 117.637 53.1735 117.779 53.6201C117.92 54.0622 118.02 54.5544 118.08 55.0967V55.5547C118.02 56.0833 117.92 56.5664 117.779 57.0039C117.637 57.4414 117.448 57.8197 117.211 58.1387C116.974 58.4577 116.685 58.7038 116.343 58.877C116.006 59.0501 115.612 59.1367 115.161 59.1367C114.714 59.1367 114.311 59.0433 113.951 58.8564C113.595 58.6696 113.292 58.4076 113.041 58.0703C112.791 57.7331 112.599 57.3366 112.467 56.8809C112.335 56.4206 112.269 55.9215 112.269 55.3838ZM113.916 55.2402V55.3838C113.916 55.721 113.946 56.0355 114.005 56.3271C114.069 56.6188 114.167 56.8763 114.299 57.0996C114.431 57.3184 114.602 57.4915 114.812 57.6191C115.026 57.7422 115.281 57.8037 115.578 57.8037C115.951 57.8037 116.259 57.7217 116.5 57.5576C116.742 57.3936 116.931 57.1725 117.068 56.8945C117.209 56.612 117.305 56.2975 117.355 55.9512V54.7139C117.328 54.445 117.271 54.1943 117.184 53.9619C117.102 53.7295 116.99 53.5267 116.849 53.3535C116.708 53.1758 116.532 53.0391 116.323 52.9434C116.118 52.8431 115.874 52.793 115.591 52.793C115.29 52.793 115.035 52.8568 114.826 52.9844C114.616 53.112 114.443 53.2874 114.306 53.5107C114.174 53.734 114.076 53.9938 114.012 54.29C113.948 54.5863 113.916 54.903 113.916 55.2402ZM123.062 51.6035V59H121.408V51.6035H123.062ZM121.298 49.6621C121.298 49.4115 121.38 49.2041 121.545 49.04C121.713 48.8714 121.946 48.7871 122.242 48.7871C122.533 48.7871 122.764 48.8714 122.932 49.04C123.101 49.2041 123.185 49.4115 123.185 49.6621C123.185 49.9082 123.101 50.1133 122.932 50.2773C122.764 50.4414 122.533 50.5234 122.242 50.5234C121.946 50.5234 121.713 50.4414 121.545 50.2773C121.38 50.1133 121.298 49.9082 121.298 49.6621ZM129.877 57.5166V53.9893C129.877 53.7249 129.829 53.4971 129.733 53.3057C129.637 53.1143 129.492 52.9661 129.296 52.8613C129.104 52.7565 128.863 52.7041 128.571 52.7041C128.302 52.7041 128.07 52.7497 127.874 52.8408C127.678 52.932 127.525 53.055 127.416 53.21C127.306 53.3649 127.252 53.5404 127.252 53.7363H125.611C125.611 53.4447 125.682 53.1621 125.823 52.8887C125.964 52.6152 126.169 52.3714 126.438 52.1572C126.707 51.943 127.028 51.7744 127.402 51.6514C127.776 51.5283 128.195 51.4668 128.66 51.4668C129.216 51.4668 129.708 51.5602 130.136 51.7471C130.569 51.9339 130.909 52.2165 131.155 52.5947C131.406 52.9684 131.531 53.4378 131.531 54.0029V57.291C131.531 57.6283 131.554 57.9313 131.599 58.2002C131.65 58.4645 131.72 58.6947 131.811 58.8906V59H130.123C130.045 58.8223 129.984 58.5967 129.938 58.3232C129.897 58.0452 129.877 57.7764 129.877 57.5166ZM130.116 54.502L130.13 55.5205H128.947C128.642 55.5205 128.373 55.5501 128.14 55.6094C127.908 55.6641 127.714 55.7461 127.559 55.8555C127.404 55.9648 127.288 56.097 127.211 56.252C127.133 56.4069 127.094 56.5824 127.094 56.7783C127.094 56.9743 127.14 57.1543 127.231 57.3184C127.322 57.4779 127.455 57.6032 127.628 57.6943C127.805 57.7855 128.02 57.8311 128.27 57.8311C128.608 57.8311 128.901 57.7627 129.152 57.626C129.407 57.4847 129.608 57.3138 129.754 57.1133C129.9 56.9082 129.977 56.7145 129.986 56.5322L130.519 57.2637C130.465 57.4505 130.371 57.651 130.239 57.8652C130.107 58.0794 129.934 58.2845 129.719 58.4805C129.51 58.6719 129.257 58.8291 128.961 58.9521C128.669 59.0752 128.332 59.1367 127.949 59.1367C127.466 59.1367 127.035 59.041 126.657 58.8496C126.279 58.6536 125.983 58.3916 125.768 58.0635C125.554 57.7308 125.447 57.3548 125.447 56.9355C125.447 56.5436 125.52 56.1973 125.666 55.8965C125.816 55.5911 126.035 55.3359 126.322 55.1309C126.614 54.9258 126.969 54.7708 127.388 54.666C127.808 54.5566 128.286 54.502 128.824 54.502H130.116ZM142.364 55.2881H139.774V53.9277H142.364C142.816 53.9277 143.18 53.8548 143.458 53.709C143.736 53.5632 143.939 53.3626 144.066 53.1074C144.199 52.8477 144.265 52.5514 144.265 52.2188C144.265 51.9043 144.199 51.6104 144.066 51.3369C143.939 51.0589 143.736 50.8356 143.458 50.667C143.18 50.4984 142.816 50.4141 142.364 50.4141H140.3V59H138.584V49.0469H142.364C143.135 49.0469 143.788 49.1836 144.326 49.457C144.869 49.7259 145.281 50.0996 145.564 50.5781C145.846 51.0521 145.987 51.5944 145.987 52.2051C145.987 52.8477 145.846 53.3991 145.564 53.8594C145.281 54.3197 144.869 54.6729 144.326 54.9189C143.788 55.165 143.135 55.2881 142.364 55.2881ZM150.717 57.6943L152.529 51.6035H154.238L151.667 59H150.601L150.717 57.6943ZM149.329 51.6035L151.175 57.7217L151.264 59H150.198L147.614 51.6035H149.329ZM159.487 51.6035V52.8066H155.317V51.6035H159.487ZM156.52 49.792H158.167V56.9561C158.167 57.1839 158.199 57.3594 158.263 57.4824C158.331 57.6009 158.425 57.6807 158.543 57.7217C158.662 57.7627 158.801 57.7832 158.96 57.7832C159.074 57.7832 159.184 57.7764 159.288 57.7627C159.393 57.749 159.478 57.7354 159.541 57.7217L159.548 58.9795C159.412 59.0205 159.252 59.057 159.07 59.0889C158.892 59.1208 158.687 59.1367 158.454 59.1367C158.076 59.1367 157.741 59.0706 157.45 58.9385C157.158 58.8018 156.93 58.5807 156.766 58.2754C156.602 57.9701 156.52 57.5645 156.52 57.0586V49.792ZM161.667 58.1797C161.667 57.9245 161.753 57.7103 161.926 57.5371C162.1 57.3594 162.334 57.2705 162.63 57.2705C162.931 57.2705 163.166 57.3594 163.335 57.5371C163.508 57.7103 163.594 57.9245 163.594 58.1797C163.594 58.4349 163.508 58.6491 163.335 58.8223C163.166 58.9954 162.931 59.082 162.63 59.082C162.334 59.082 162.1 58.9954 161.926 58.8223C161.753 58.6491 161.667 58.4349 161.667 58.1797ZM177.059 57.6396V59H172.062V57.6396H177.059ZM172.541 49.0469V59H170.825V49.0469H172.541ZM182.452 51.6035V52.8066H178.282V51.6035H182.452ZM179.485 49.792H181.133V56.9561C181.133 57.1839 181.165 57.3594 181.229 57.4824C181.297 57.6009 181.39 57.6807 181.509 57.7217C181.627 57.7627 181.766 57.7832 181.926 57.7832C182.04 57.7832 182.149 57.7764 182.254 57.7627C182.359 57.749 182.443 57.7354 182.507 57.7217L182.514 58.9795C182.377 59.0205 182.217 59.057 182.035 59.0889C181.857 59.1208 181.652 59.1367 181.42 59.1367C181.042 59.1367 180.707 59.0706 180.415 58.9385C180.123 58.8018 179.896 58.5807 179.731 58.2754C179.567 57.9701 179.485 57.5645 179.485 57.0586V49.792ZM189.075 57.4688V48.5H190.73V59H189.233L189.075 57.4688ZM184.263 55.3838V55.2402C184.263 54.6797 184.329 54.1693 184.461 53.709C184.593 53.2441 184.785 52.8454 185.035 52.5127C185.286 52.1755 185.591 51.918 185.951 51.7402C186.311 51.5579 186.717 51.4668 187.168 51.4668C187.615 51.4668 188.007 51.5534 188.344 51.7266C188.681 51.8997 188.968 52.1481 189.205 52.4717C189.442 52.7907 189.631 53.1735 189.773 53.6201C189.914 54.0622 190.014 54.5544 190.073 55.0967V55.5547C190.014 56.0833 189.914 56.5664 189.773 57.0039C189.631 57.4414 189.442 57.8197 189.205 58.1387C188.968 58.4577 188.679 58.7038 188.337 58.877C188 59.0501 187.606 59.1367 187.154 59.1367C186.708 59.1367 186.305 59.0433 185.945 58.8564C185.589 58.6696 185.286 58.4076 185.035 58.0703C184.785 57.7331 184.593 57.3366 184.461 56.8809C184.329 56.4206 184.263 55.9215 184.263 55.3838ZM185.91 55.2402V55.3838C185.91 55.721 185.94 56.0355 185.999 56.3271C186.063 56.6188 186.161 56.8763 186.293 57.0996C186.425 57.3184 186.596 57.4915 186.806 57.6191C187.02 57.7422 187.275 57.8037 187.571 57.8037C187.945 57.8037 188.253 57.7217 188.494 57.5576C188.736 57.3936 188.925 57.1725 189.062 56.8945C189.203 56.612 189.299 56.2975 189.349 55.9512V54.7139C189.321 54.445 189.265 54.1943 189.178 53.9619C189.096 53.7295 188.984 53.5267 188.843 53.3535C188.702 53.1758 188.526 53.0391 188.317 52.9434C188.112 52.8431 187.868 52.793 187.585 52.793C187.284 52.793 187.029 52.8568 186.82 52.9844C186.61 53.112 186.437 53.2874 186.3 53.5107C186.168 53.734 186.07 53.9938 186.006 54.29C185.942 54.5863 185.91 54.903 185.91 55.2402ZM193.361 58.1797C193.361 57.9245 193.447 57.7103 193.62 57.5371C193.794 57.3594 194.028 57.2705 194.325 57.2705C194.625 57.2705 194.86 57.3594 195.029 57.5371C195.202 57.7103 195.288 57.9245 195.288 58.1797C195.288 58.4349 195.202 58.6491 195.029 58.8223C194.86 58.9954 194.625 59.082 194.325 59.082C194.028 59.082 193.794 58.9954 193.62 58.8223C193.447 58.6491 193.361 58.4349 193.361 58.1797Z" fill="#AF4600"/>
<line x1="68" y1="46.9" x2="218" y2="46.9" stroke="#AF4600" stroke-width="0.2"/>
<line x1="68" y1="61.9" x2="218" y2="61.9" stroke="#AF4600" stroke-width="0.2"/>
</svg>
